<?xml version="1.0" encoding="utf-8"?>
<!-- Generator: Adobe Illustrator 27.5.0, SVG Export Plug-In . SVG Version: 6.00 Build 0)  -->
<svg version="1.1" id="Layer_1" xmlns="http://www.w3.org/2000/svg" xmlns:xlink="http://www.w3.org/1999/xlink" x="0px" y="0px"
	 viewBox="0 0 2252.805 2000" style="enable-background:new 0 0 2252.805 2000;" xml:space="preserve">
<rect x="-0.001" y="-0.001" style="fill:#FFFFFF;" width="2252.805" height="2000"/>
<g>
	<path style="fill:#BDE6F6;" d="M1963.19,1827.587c93.272-166.499,147.136-362.899,147.136-573.233
		c0-601.474-440.373-1089.064-983.6-1089.064c-543.228,0-983.6,487.59-983.6,1089.064c0,210.334,53.863,406.734,147.136,573.233
		H1963.19z"/>
	<path style="opacity:0.25;fill:#FFFFFF;" d="M1946.405,517.222c-49.929-6.061-100.667-0.98-150.845-4.785
		c-50.166-3.804-99.554-16.582-144.768-37.455c-12.518-5.779-24.886-12.231-38.447-15.248c-18.218-4.052-37.231-1.636-55.932-0.915
		c-36.444,1.405-73.164-3.81-107.56-15.274c-11.615-3.873-24.577-10.276-26.49-21.766c-2.442-14.669,14.481-25.157,29.276-30.189
		c14.796-5.031,32.554-11.238,35.748-25.777c1.438-6.533-0.492-13.915,3.253-19.573c2.558-3.865,7.2-5.965,11.633-7.769
		c49.124-19.986,102.521-27.795,155.662-29.888c11.645-0.459,23.655-0.063,35.774,0.434
		c-63.629-34.456-131.03-63.403-201.537-86.031c-33.712,1.691-67.512,2.098-101.366,1.13c-70.849-2.026-147.01-8.564-207.505,26.316
		c-7.855,4.529-15.771,10.31-18.358,18.65c-6.384,20.586,21.464,34.643,43.489,39.896c3.473,14.269-16.479,22.372-31.747,24.925
		c-49.226,8.23-97.707,20.434-144.739,36.433c-33.35,11.344-70.373,29.465-76.941,62.356c-4.619,23.132,8.551,47.059,27.97,61.819
		c19.419,14.761,44.143,21.774,68.617,26.254c83.324,15.25,169.482,4.783,253.973,12.393c11.27,1.015,23.048,2.545,32.221,8.809
		c14.51,9.907,18.402,28.486,28.549,42.415c20.146,27.657,60.536,32.711,96.032,34.539c79.044,4.071,158.29,4.681,237.394,1.826
		c19.934-0.719,40.241-1.621,59.492,3.315c20.238,5.19,37.991,16.488,56.744,25.357c44.59,21.089,94.834,28.416,144.133,35.527
		c50.58,7.297,101.592,14.646,152.641,13.472c-39.928-63.385-86.506-122.591-138.772-176.822
		C1964.845,519.865,1955.657,518.345,1946.405,517.222z"/>
	<path style="opacity:0.25;fill:#FFFFFF;" d="M1658.527,874.138c-6.613-10.065-16.729-16.504-26.746-22.152
		c-147.215-83-322.755-54.178-487.437-68.683c-42.164-3.713-84.937-10.675-122.918-31.286
		c-44.351-24.068-83.009-66.784-132.305-70.182c-34.645-2.389-80.551,9.729-95.436-24.992c-3.665-8.548-3.464-18.352-4.575-27.733
		c-15.11-127.655-233.714-90.545-255.037-89.443c-52.227,2.698-104.455,5.397-156.682,8.095
		c-51.665,67.071-96.096,141.176-131.985,220.825c49.107-0.508,98.218-0.86,147.322-1.378c24.222-0.255,48.893-0.442,72.059,7.401
		c31.578,10.693,58.011,35.523,89.5,46.534c24.188,8.458,50.047,8.314,75.413,8.093c91.769-0.8,183.538-1.599,275.308-2.399
		c17.329-0.15,35.152-0.206,51.291,6.783c15.846,6.861,28.73,19.932,43.045,30.114c47.246,33.605,106.802,34.159,161.948,45.893
		c17.503,3.725,36.778,10.304,45.159,27.72c13.961,29.011-12.46,62.21-39.114,76.692c-106.977,58.121-238.7,1.737-352.543,40.719
		c-30.444,10.424-58.68,27.418-88.35,40.29c-97.305,42.216-205.591,38.511-309.525,26.403
		c-87.971-10.248-176.307-26.075-264.4-23.46c-6.609,50.979-10.044,103.091-10.044,156.095c0,16.621,0.375,33.143,1.04,49.581
		c49.149,1.225,98.298,2.449,147.446,3.675c92.833,2.313,185.864,4.621,278.417-3.694c51.853-4.658,104.125-12.843,152.216-34.813
		c28.998-13.248,56.178-31.378,86.002-42.147c52.443-18.937,109.063-13.885,164.155-16.945
		c85.083-4.727,168.143-29.162,250.456-53.464c126.822-37.441,439.29-93.499,447.308-235.401
		C1670.437,904.583,1667.2,887.341,1658.527,874.138z"/>
	<g>
		<path style="fill:#FFFFFF;" d="M1939.564,791.35c0,0-2.828,30.865-24.825,33c21.997,2.136,24.825,33,24.825,33
			s2.826-30.864,24.824-33C1942.391,822.215,1939.564,791.35,1939.564,791.35z"/>
		<path style="fill:#FFFFFF;" d="M853.708,347.837c0,0-1.917,20.921-16.828,22.369c14.911,1.447,16.828,22.369,16.828,22.369
			s1.917-20.921,16.828-22.369C855.624,368.759,853.708,347.837,853.708,347.837z"/>
		<path style="fill:#FFFFFF;" d="M1972.682,1283.496c0,0-1.981,21.636-17.403,23.133c15.422,1.497,17.403,23.134,17.403,23.134
			s1.982-21.637,17.402-23.134C1974.664,1305.132,1972.682,1283.496,1972.682,1283.496z"/>
		<g>
			<path style="fill:#FFFFFF;" d="M1773.205,1085.112c11.736,0,11.756-20.194,0-20.194
				C1761.47,1064.918,1761.451,1085.112,1773.205,1085.112L1773.205,1085.112z"/>
		</g>
		<g>
			<path style="fill:#FFFFFF;" d="M1556.369,1205.717c5.867,0,5.877-10.098,0-10.098
				C1550.5,1195.619,1550.49,1205.717,1556.369,1205.717L1556.369,1205.717z"/>
		</g>
		<g>
			<path style="fill:#FFFFFF;" d="M1890.743,990.313c5.868,0,5.878-10.098,0-10.098
				C1884.875,980.215,1884.865,990.313,1890.743,990.313L1890.743,990.313z"/>
		</g>
		<g>
			<path style="fill:#FFFFFF;" d="M1669.667,814.683c5.868,0,5.879-10.097,0-10.097
				C1663.8,804.586,1663.79,814.683,1669.667,814.683L1669.667,814.683z"/>
		</g>
		<g>
			<path style="fill:#FFFFFF;" d="M755.894,496.675c5.868,0,5.878-10.097,0-10.097C750.026,486.578,750.018,496.675,755.894,496.675
				L755.894,496.675z"/>
		</g>
		<g>
			<path style="fill:#FFFFFF;" d="M928.148,625.133c11.736,0,11.755-20.194,0-20.194
				C916.413,604.938,916.394,625.133,928.148,625.133L928.148,625.133z"/>
		</g>
		<g>
			<path style="fill:#FFFFFF;" d="M936.254,469.75c5.868,0,5.877-10.097,0-10.097C930.387,459.652,930.377,469.75,936.254,469.75
				L936.254,469.75z"/>
		</g>
		<g>
			<path style="fill:#FFFFFF;" d="M761.975,368.778c5.868,0,5.878-10.097,0-10.097C756.106,358.681,756.097,368.778,761.975,368.778
				L761.975,368.778z"/>
		</g>
		<g>
			<path style="fill:#FFFFFF;" d="M695.099,366.254c2.935,0,2.94-5.048,0-5.048C692.165,361.206,692.16,366.254,695.099,366.254
				L695.099,366.254z"/>
		</g>
		<g>
			<path style="fill:#FFFFFF;" d="M413.414,797.064c2.934,0,2.938-5.049,0-5.049C410.479,792.016,410.475,797.064,413.414,797.064
				L413.414,797.064z"/>
		</g>
		<g>
			<path style="fill:#FFFFFF;" d="M579.588,779.675c8.802,0,8.816-15.146,0-15.146C570.786,764.529,570.771,779.675,579.588,779.675
				L579.588,779.675z"/>
		</g>
		<g>
			<path style="fill:#FFFFFF;" d="M249.266,1053.139c5.868,0,5.878-10.098,0-10.098
				C243.398,1043.041,243.388,1053.139,249.266,1053.139L249.266,1053.139z"/>
		</g>
		<g>
			<path style="fill:#FFFFFF;" d="M1679.986,482.792c13.202,0,13.224-22.719,0-22.719
				C1666.783,460.073,1666.762,482.792,1679.986,482.792L1679.986,482.792z"/>
		</g>
		<g>
			<path style="fill:#FFFFFF;" d="M1450.99,317.451c8.801,0,8.816-15.146,0-15.146
				C1442.188,302.306,1442.174,317.451,1450.99,317.451L1450.99,317.451z"/>
		</g>
		<g>
			<path style="fill:#FFFFFF;" d="M1246.312,375.51c5.868,0,5.878-10.097,0-10.097
				C1240.443,365.413,1240.434,375.51,1246.312,375.51L1246.312,375.51z"/>
		</g>
		<g>
			<path style="fill:#FFFFFF;" d="M1600.952,412.392c4.4,0,4.407-7.573,0-7.573C1596.551,404.819,1596.544,412.392,1600.952,412.392
				L1600.952,412.392z"/>
		</g>
		<g>
			<path style="fill:#FFFFFF;" d="M1779.285,531.314c4.4,0,4.408-7.573,0-7.573C1774.884,523.741,1774.877,531.314,1779.285,531.314
				L1779.285,531.314z"/>
		</g>
		<g>
			<path style="fill:#FFFFFF;" d="M1609.058,757.938c4.401,0,4.408-7.573,0-7.573
				C1604.656,750.365,1604.649,757.938,1609.058,757.938L1609.058,757.938z"/>
		</g>
		<g>
			<path style="fill:#FFFFFF;" d="M885.592,771.401c4.4,0,4.408-7.573,0-7.573C881.191,763.828,881.184,771.401,885.592,771.401
				L885.592,771.401z"/>
		</g>
	</g>
	<g>
		<g>
			<path style="fill:#86B1F2;" d="M1284.027,1822.955c0,0-163.5-189.252-259.482-218.61c-95.981-29.357-5.518,87.245-5.518,87.245
				s-170.272-175.914-232.754-160.055c-57.276,14.537,0,123.576,0,123.576s-64.51-60.379-142.741-60.379
				c-78.231,0,60.466,226.09,60.466,226.09L1284.027,1822.955z"/>
			<path style="fill:#9BC1F9;" d="M786.272,1820.822c0,0-141.609-304.054-270.73-273.588
				c-104.636,24.687-9.282,182.371-15.66,176.346c-6.379-6.026-46.113-80.512-136.917-80.512s27.874,121.424,27.874,121.424
				s-193.467-57.086-208.616,2.86c-12.573,49.75,57.742,53.47,57.742,53.47H786.272z"/>
			<path style="fill:#9BC1F9;" d="M968.719,1822.823c0,0,148.523-186.481,244.506-215.839c95.984-29.357,5.52,87.244,5.52,87.244
				s170.271-175.912,232.756-160.053c57.274,14.536,0,160.115,0,160.115s34.337-101.575,112.567-101.575
				c78.231,0-30.294,230.748-30.294,230.748L968.719,1822.823z"/>
			<path style="fill:#86B1F2;" d="M1451.5,1823.464c0,0,104.262-263.436,233.38-232.972
				c104.637,24.688,30.243,157.238,36.621,151.212c6.379-6.028,62.501-95.997,153.305-95.997s-27.875,121.428-27.875,121.428
				s193.466-57.087,208.617,2.858c12.572,49.75-57.743,53.472-57.743,53.472H1451.5z"/>
			<g>
				<path style="fill:#466EB6;" d="M189.387,1731.168c46.288,13.374,86.351,40.986,124.87,67.816
					c25.974,18.089,23.791,21.526,29.225,24.501c0.88,0.481,2.017-0.316,1.73-1.259c-1.397-4.594-6.698-8.481-10.3-11.625
					c-4.191-3.659-8.662-7.03-13.239-10.248c-9.792-6.882-19.966-13.321-30.056-19.809c-20.524-13.197-41.521-25.912-63.979-36
					c-12.311-5.528-25.031-10.206-38.146-13.734C189.248,1730.744,189.145,1731.096,189.387,1731.168L189.387,1731.168z"/>
			</g>
			<g>
				<path style="fill:#466EB6;" d="M278.993,1575.48c4.8,2.731,9.198,6.408,13.577,9.695c23.83,17.886,48.008,35.191,80.879,71.578
					c43.951,48.647,76.782,103.895,96.802,164.229c0.717,2.159,4.329,1.234,3.6-0.938c-13.025-38.811-31.498-75.938-54.73-110.227
					C356.358,1617.176,278.147,1575,278.993,1575.48L278.993,1575.48z"/>
			</g>
			<g>
				<path style="fill:#466EB6;" d="M397.665,1586.639c5.253,32.683,23.302,62.074,35.744,92.573
					c33.28,81.591,38.743,143.726,41.737,150.612c0.3,0.691,1.254,0.572,1.351-0.174c0.828-6.391-6.508-51.14-20.967-97.679
					c-24.04-77.381-49.206-107.604-56.729-145.628C398.661,1585.633,397.553,1585.943,397.665,1586.639L397.665,1586.639z"/>
			</g>
			<path style="fill:#466EB6;" d="M318.537,1577.148c-0.897,1.694-4.602,6.29-5.103,11.772c-0.973,5.262,1.259,11.416,1.371,11.176
				c0.34,0.085-5.533-3.461-8.132-9.954c-3.045-6.156-2.818-15.263-0.584-18.553c3.635-7.259,11.546-8.949,13.561-5.909
				C321.755,1568.688,320.284,1573.33,318.537,1577.148z"/>
			<path style="fill:#466EB6;" d="M373.075,1628.89c-0.675,1.777-3.764,6.734-3.575,12.214c-0.302,5.314,2.674,11.15,2.755,10.901
				c0.347,0.046-5.905-2.807-9.289-8.937c-3.783-5.75-4.698-14.783-2.899-18.287c2.686-7.586,10.3-10.141,12.673-7.358
				C375.2,1620.162,374.325,1624.918,373.075,1628.89z"/>
			<path style="fill:#466EB6;" d="M442.5,1654.369c-1.397,0.451-5.852,1.061-9.111,3.695c-3.386,2.291-5.575,6.61-5.385,6.539
				c0.132,0.21-1.016-4.517,1.165-9.193c1.763-4.72,6.857-9.394,9.828-10.03c5.875-2.041,10.954,0.925,10.352,3.506
				C448.811,1651.493,445.503,1653.213,442.5,1654.369z"/>
			<path style="fill:#466EB6;" d="M449.397,1670.314c-1.398,0.454-5.854,1.06-9.112,3.695c-3.386,2.291-5.575,6.612-5.385,6.54
				c0.132,0.212-1.016-4.514,1.165-9.193c1.764-4.721,6.857-9.392,9.828-10.031c5.875-2.04,10.954,0.928,10.352,3.509
				C455.71,1667.439,452.4,1669.162,449.397,1670.314z"/>
			<path style="fill:#466EB6;" d="M234.773,1724.963c-0.676,1.776-3.764,6.735-3.575,12.214c-0.302,5.316,2.674,11.151,2.755,10.901
				c0.348,0.046-5.905-2.805-9.289-8.937c-3.783-5.749-4.697-14.781-2.899-18.286c2.687-7.586,10.3-10.142,12.673-7.36
				C236.899,1716.236,236.023,1720.991,234.773,1724.963z"/>
			<path style="fill:#466EB6;" d="M273.586,1746.522c-0.675,1.776-3.764,6.733-3.575,12.212c-0.303,5.316,2.674,11.152,2.754,10.902
				c0.348,0.047-5.904-2.805-9.288-8.936c-3.783-5.751-4.698-14.783-2.899-18.287c2.686-7.585,10.299-10.141,12.674-7.359
				C275.712,1737.794,274.837,1742.551,273.586,1746.522z"/>
			<path style="fill:#466EB6;" d="M312.32,1771.932c-0.676,1.778-3.765,6.736-3.575,12.213c-0.303,5.317,2.674,11.154,2.754,10.904
				c0.348,0.046-5.904-2.807-9.288-8.937c-3.783-5.752-4.698-14.783-2.899-18.286c2.686-7.587,10.299-10.142,12.673-7.359
				C314.445,1763.204,313.569,1767.961,312.32,1771.932z"/>
			<path style="fill:#466EB6;" d="M295.427,1611.003c1.159-1.357,3.815-6.048,8.484-8.542c4.295-2.782,10.604-3.37,10.433-3.189
				c0.206,0.236-5.184-3.056-11.934-2.629c-6.624-0.055-14.61,3.608-16.672,6.634c-5.045,5.654-3.519,12.562-0.052,12.993
				C289.157,1616.787,292.709,1613.847,295.427,1611.003z"/>
			<path style="fill:#466EB6;" d="M328.809,1640.125c1.159-1.36,3.815-6.049,8.484-8.543c4.295-2.783,10.603-3.371,10.434-3.19
				c0.205,0.236-5.184-3.056-11.935-2.629c-6.624-0.056-14.61,3.606-16.672,6.636c-5.045,5.652-3.519,12.561-0.051,12.992
				C322.539,1645.906,326.091,1642.966,328.809,1640.125z"/>
			<path style="fill:#466EB6;" d="M388.044,1614.016c1.844,0.089,7.422-0.63,12.3,1.477c4.906,1.65,9.112,6.132,8.858,6.107
				c-0.083,0.296-0.426-5.76-4.755-10.673c-3.841-5.1-11.667-9.057-15.471-8.858c-7.806-0.54-12.828,4.684-11.163,7.588
				C379.409,1612.615,384.013,1613.606,388.044,1614.016z"/>
			<path style="fill:#466EB6;" d="M397.823,1636.367c1.845,0.09,7.422-0.633,12.3,1.475c4.905,1.652,9.111,6.133,8.858,6.108
				c-0.084,0.296-0.426-5.759-4.754-10.673c-3.841-5.098-11.667-9.057-15.472-8.856c-7.805-0.542-12.829,4.682-11.163,7.586
				C389.186,1634.967,393.792,1635.956,397.823,1636.367z"/>
			<path style="fill:#466EB6;" d="M214.955,1759.494c1.159-1.357,3.815-6.047,8.483-8.542c4.296-2.782,10.603-3.37,10.434-3.189
				c0.205,0.237-5.184-3.057-11.936-2.629c-6.624-0.058-14.609,3.608-16.672,6.634c-5.044,5.654-3.518,12.562-0.05,12.993
				C208.685,1765.277,212.237,1762.337,214.955,1759.494z"/>
			<path style="fill:#466EB6;" d="M371.31,1685.002c1.159-1.36,3.815-6.05,8.485-8.543c4.294-2.783,10.603-3.371,10.432-3.19
				c0.206,0.235-5.183-3.056-11.935-2.629c-6.624-0.056-14.609,3.607-16.672,6.636c-5.044,5.652-3.518,12.561-0.051,12.991
				C365.041,1690.784,368.592,1687.844,371.31,1685.002z"/>
			<path style="fill:#466EB6;" d="M255.36,1781.751c1.159-1.358,3.816-6.048,8.484-8.543c4.295-2.782,10.603-3.37,10.433-3.189
				c0.205,0.237-5.184-3.056-11.934-2.629c-6.625-0.056-14.61,3.608-16.673,6.636c-5.044,5.652-3.518,12.561-0.052,12.99
				C249.091,1787.533,252.643,1784.594,255.36,1781.751z"/>
			<path style="fill:#466EB6;" d="M275.766,1586.819c0.919-0.707,3.241-3.32,6.522-4.304c3.086-1.212,7.129-0.794,6.998-0.702
				c0.095,0.175-2.829-2.565-7.127-3.14c-4.152-0.862-9.679,0.442-11.396,2.085c-3.959,2.921-3.965,7.447-1.849,8.151
				C271.021,1589.668,273.662,1588.265,275.766,1586.819z"/>
			<path style="fill:#466EB6;" d="M284.632,1568.475c-0.047,1.119-0.86,4.445,0.279,7.514c0.831,3.057,3.615,5.858,3.614,5.704
				c0.204-0.032-3.871-0.592-6.94-3.493c-3.225-2.617-5.445-7.574-5.088-9.858c0.09-4.743,3.916-7.472,5.784-6.297
				C284.189,1563.18,284.59,1566.017,284.632,1568.475z"/>
			<g>
				<g>
					<path style="fill:#466EB6;" d="M1930.125,1603.584c-35.923,66.436-59.295,139.48-68.585,216.373l-3.063-0.623
						c9.399-75.295,32.572-148.205,68.432-214.567c8.333-15.423,17.148-33.671,35.323-40.367c0.35-0.13,0.549,0.389,0.215,0.529
						C1945.945,1571.886,1937.923,1589.162,1930.125,1603.584z"/>
				</g>
				<g>
					<path style="fill:#466EB6;" d="M1872.309,1822.146c41.223-64.928,93.457-125.581,157.713-179.188
						c0.64-0.536,1.719,0.582,1.075,1.129c-60.848,51.637-113.015,111.714-154.99,178.83L1872.309,1822.146z"/>
				</g>
				<path style="fill:#466EB6;" d="M1929.455,1563.431c1.301,1.513,6.049,5.393,7.925,10.688c2.277,5.004,1.682,11.421,1.513,11.204
					c-0.308,0.14,4.47-4.337,5.334-11.152c1.383-6.563-1.147-15.461-4.145-18.312c-5.356-6.507-13.435-6.821-14.611-3.493
					C1924.197,1555.676,1926.799,1559.98,1929.455,1563.431z"/>
				<path style="fill:#466EB6;" d="M1946.505,1620.49c-1.746-1.02-6.427-4.975-12.18-6.02c-5.505-1.461-12.082-0.014-11.834,0.117
					c-0.103,0.311,3.884-4.826,10.836-6.584c6.619-2.212,16.202-1.044,19.57,1.395c7.49,4.167,8.933,11.764,5.643,13.334
					C1955.281,1624.392,1950.455,1622.527,1946.505,1620.49z"/>
				<path style="fill:#466EB6;" d="M1933.763,1646.418c-1.748-1.017-6.426-4.971-12.183-6.016
					c-5.501-1.463-12.08-0.014-11.831,0.115c-0.105,0.311,3.885-4.824,10.835-6.584c6.618-2.21,16.201-1.045,19.572,1.396
					c7.488,4.168,8.931,11.762,5.64,13.332C1942.538,1650.322,1937.711,1648.457,1933.763,1646.418z"/>
				<path style="fill:#466EB6;" d="M1996.424,1702.355c-1.747-1.019-6.428-4.974-12.183-6.019
					c-5.503-1.461-12.08-0.013-11.833,0.117c-0.104,0.31,3.884-4.827,10.836-6.584c6.619-2.211,16.199-1.045,19.57,1.396
					c7.491,4.167,8.934,11.763,5.641,13.332C2005.199,1706.259,2000.372,1704.394,1996.424,1702.355z"/>
				<path style="fill:#466EB6;" d="M2022.201,1677.131c-1.748-1.019-6.428-4.974-12.181-6.017
					c-5.505-1.462-12.082-0.016-11.834,0.114c-0.106,0.31,3.884-4.825,10.836-6.582c6.618-2.213,16.199-1.045,19.57,1.392
					c7.49,4.17,8.931,11.764,5.64,13.336C2030.974,1681.035,2026.147,1679.168,2022.201,1677.131z"/>
				<path style="fill:#466EB6;" d="M1910.844,1592.965c1.521,1.313,6.813,4.473,9.531,9.473c3.06,4.646,3.549,11.137,3.347,10.946
					c-0.275,0.188,3.648-4.992,3.356-11.918c0.259-6.752-3.703-15.247-7.108-17.643c-6.325-5.688-14.276-4.794-14.871-1.301
					C1904.406,1586.015,1907.667,1589.92,1910.844,1592.965z"/>
				<path style="fill:#466EB6;" d="M1891.12,1622.612c2.053,0.89,9.031,2.354,12.997,7.018c4.353,4.113,5.692,11.429,5.418,11.292
					c-0.324,0.33,4.01-7.299,2.867-15.201c-0.437-7.925-6.347-16.123-10.878-17.483c-8.558-3.965-18.415,0.37-18.767,4.664
					C1882.28,1617.233,1886.803,1620.402,1891.12,1622.612z"/>
				<path style="fill:#466EB6;" d="M1871.894,1667.029c2.161,0.559,9.228,0.904,13.927,4.92c4.979,3.405,7.587,10.476,7.296,10.383
					c-0.259,0.382,2.609-7.908,0.089-15.599c-1.836-7.825-9.062-15.048-13.724-15.682c-9.052-2.585-17.895,3.306-17.474,7.639
					C1862.313,1663.08,1867.291,1665.517,1871.894,1667.029z"/>
				<path style="fill:#466EB6;" d="M1947.14,1693.924c1.623,0.832,7.236,2.394,10.193,6.386c3.309,3.568,3.962,9.565,3.747,9.438
					c-0.286,0.25,3.716-5.694,3.257-12.154c0.123-6.443-4.212-13.402-7.832-14.749c-6.753-3.673-15.066-0.693-15.614,2.764
					C1940.241,1689.091,1943.745,1691.902,1947.14,1693.924z"/>
				<path style="fill:#466EB6;" d="M1970.53,1571.75c-0.991-0.673-3.591-3.194-6.961-4.049c-3.203-1.09-7.179-0.509-7.038-0.423
					c-0.076,0.179,2.532-2.681,6.744-3.426c4.036-1.028,9.678,0.057,11.566,1.631c4.258,2.765,4.763,7.299,2.734,8.087
					C1975.562,1574.413,1972.782,1573.113,1970.53,1571.75z"/>
				<path style="fill:#466EB6;" d="M1959.696,1553.742c0.17,1.118,1.346,4.416,0.547,7.531c-0.491,3.094-2.954,6.009-2.968,5.854
					c-0.207-0.026,3.784-0.748,6.521-3.773c2.918-2.746,4.583-7.797,3.978-10.071c-0.611-4.743-4.716-7.321-6.443-6.071
					C1959.556,1548.425,1959.468,1551.279,1959.696,1553.742z"/>
				<path style="fill:#466EB6;" d="M2039.937,1651.827c-0.991-0.673-3.589-3.194-6.96-4.049c-3.204-1.09-7.18-0.511-7.037-0.423
					c-0.077,0.178,2.529-2.682,6.742-3.428c4.036-1.027,9.676,0.059,11.566,1.634c4.258,2.766,4.763,7.298,2.734,8.086
					C2044.97,1654.49,2042.188,1653.19,2039.937,1651.827z"/>
				<path style="fill:#466EB6;" d="M2027.289,1633.742c0.268,1.107,1.717,4.318,1.195,7.501c-0.218,3.137-2.406,6.25-2.434,6.094
					c-0.209-0.008,3.686-1.042,6.136-4.284c2.657-2.979,3.868-8.168,3.071-10.396c-1.018-4.705-5.311-6.97-6.915-5.582
					C2026.688,1628.426,2026.85,1631.295,2027.289,1633.742z"/>
			</g>
			<path style="fill:#466EB6;" d="M184.962,1738.663c0.919-0.708,3.242-3.321,6.523-4.304c3.085-1.212,7.129-0.793,6.996-0.701
				c0.097,0.176-2.827-2.566-7.126-3.141c-4.151-0.861-9.678,0.443-11.397,2.085c-3.958,2.922-3.965,7.45-1.85,8.152
				C180.217,1741.513,182.858,1740.11,184.962,1738.663z"/>
			<path style="fill:#466EB6;" d="M193.828,1720.32c-0.048,1.117-0.86,4.443,0.28,7.512c0.83,3.059,3.615,5.859,3.613,5.705
				c0.205-0.032-3.869-0.595-6.94-3.494c-3.224-2.616-5.445-7.571-5.087-9.857c0.09-4.744,3.915-7.471,5.783-6.297
				C193.384,1715.025,193.786,1717.863,193.828,1720.32z"/>
		</g>
		<g>
			<path style="fill:#C75F46;" d="M728.183,1825.591h-12.703c-1.678,0-3.037-1.359-3.037-3.036V486.635
				c0-4.929,3.996-8.925,8.925-8.925h0.926c4.929,0,8.925,3.996,8.925,8.925v1335.919
				C731.219,1824.231,729.859,1825.591,728.183,1825.591z"/>
			<polygon style="fill:#92B9F3;" points="797.161,645.971 556.266,705.848 574.454,772.137 815.349,712.261 820.602,731.408 
				906.173,655.669 791.392,624.946 			"/>
			<polygon style="fill:#3C8F7C;" points="808.737,1215.892 588.973,1163.951 576.8,1210.606 796.565,1262.547 792.963,1276.353 
				893.24,1261.601 812.413,1201.804 			"/>
			<polygon style="fill:#50BFA5;" points="666.325,440.007 881.178,535.316 852.227,594.439 637.374,499.13 628.807,516.625 
				562.484,431.337 675.068,422.153 			"/>
			<polygon style="fill:#7CA8ED;" points="638.859,1023.125 821.916,965.45 848.085,1040.692 665.028,1098.367 672.771,1120.632 
				576.8,1086.059 630.957,1000.402 			"/>
			<polygon style="fill:#EDB95C;" points="802.701,1349.647 584.68,1417.577 605.315,1477.572 823.335,1409.642 829.441,1427.396 
				903.53,1352.746 796.47,1331.529 			"/>
			<polygon style="fill:#F7CC7F;" points="638.779,818.338 867.723,857.563 855.808,920.563 626.864,881.339 623.06,901.452 
				537.966,834.862 642.802,797.064 			"/>
		</g>
		<path style="fill:#F47458;" d="M2084.528,1816.473H168.923c-4.183,0-7.573,4.083-7.573,9.118c0,5.034,3.39,9.119,7.573,9.119
			h1915.605c4.183,0,7.573-4.085,7.573-9.119C2092.102,1820.556,2088.711,1816.473,2084.528,1816.473z"/>
	</g>
</g>
<g>
	<g>
		<g>
			<path style="fill:#F8A492;" d="M1451.854,965.78c-1.281,4.419-2.02,5.884-3.651,8.853
				c-10.516,19.141-34.915,46.454-34.915,46.454l-18.876-42.524c0,0,3.077-13.353,8.414-32.44
				C1421.055,950.881,1438.418,953.636,1451.854,965.78z"/>
			<path style="fill:#E3B25D;" d="M1343.637,928.893c0,0,105.275,45.335,108.68,44.468c2.192-0.557,43.184-69.168,43.62-133.689
				c0.203-29.801-30.744-65.646-65.274-58.558c-17.385,3.57-17.113,8.404-42.832,45.776
				C1362.11,864.264,1343.637,928.893,1343.637,928.893z"/>
			<path style="fill:#F7A491;" d="M1253.77,1741.705c0,0,2.496,41.348,2.512,41.432c0.918,5.25,4.533,18.22,4.533,22.99
				c0,17.928-85.129-15.218-66.05-23.163c1.728-0.719,10.774-6.157,11.342-12.259c0.875-9.401,3.095-28.42,3.095-28.42
				L1253.77,1741.705z"/>
			<path style="fill:#13375B;" d="M1194.975,1782.795c0,0,19.987,5.484,30.224,6.855c10.237,1.37,23.731-10.174,30.972-7.056
				c7.971,3.432,7.658,34.326,7.658,34.326s-107.18,8.794-137.318-0.305C1114.57,1813.013,1154.117,1795.567,1194.975,1782.795z"/>
			<path style="fill:#F7A491;" d="M1427.913,1741.705c0,0,2.498,41.348,2.513,41.432c0.918,5.25,4.533,18.22,4.533,22.99
				c0,17.928-85.128-15.218-66.049-23.163c1.727-0.719,13.455-10.218,14.022-16.319c0.875-9.4,0.413-24.359,0.413-24.359
				L1427.913,1741.705z"/>
			<path style="fill:#13375B;" d="M1369.12,1782.795c0,0,19.986,5.484,30.224,6.855c10.236,1.37,23.731-10.174,30.972-7.056
				c7.97,3.432,8.287,34.326,8.287,34.326s-107.665,10.251-137.947-0.305C1288.897,1812.517,1328.26,1795.567,1369.12,1782.795z"/>
			<g>
				<path style="fill:#F7A491;" d="M1401.896,988.69l-74.976-105.033c-0.314-0.919-0.996-2.799-2.037-5.675
					c-3.776-10.421-11.633-32.108-18.478-53.683l-0.073-0.229c-2.151-7.541-6.71-20.696-11.119-33.424
					c-4.903-14.149-10.983-31.697-11.196-34.69c0.188-0.511,0.542-1.43,1.012-2.649c2.748-7.139,6.465-24.132,7.78-31.521
					c0.836-4.706,1.673-16.143-3.922-16.143c-8.793,0-4.603,11.422-8.656,18.557c-1.492-4.77-4.505-14.228-6.095-23.803
					l-1.471-22.33c-0.283-1.683,1.508-14.003-4.66-14.003l-0.294,0.01c-5.542,0.406-5.418,13.502-7.722,35.653
					c-0.729-2.548-1.458-5.622-2.007-8.448c0.064-1.515-1.046-8.174-1.875-11.688c1.111-6.172,0.465-15.907-6.107-14.99
					c-3.295,0.462-3.023,14.047-3.023,14.047c0.035,1.864,0.229,16.229,0.13,19.067c-0.68-4.82-3.312-25.377-8.469-25.377
					c-4.278,0-4.621,5.534-4.531,9.912c0.054,2.59,2.739,24.863,2.89,27.453c-2.014-3.38-4.403-23.006-6.397-23.006
					c-8.339,0-5.323,27.906-2.261,35.177c0.288,0.743,0.594,2.204,0.948,3.894c1.042,4.97,2.784,13.292,7.151,20.763
					c5.236,8.957,12.457,23.198,13.559,25.381c0.809,4.448,3.316,20.447,6.473,40.571c1.351,8.61,2.83,18.054,4.372,27.833
					l0.082-0.012c0.282,2.118,1.848,8.848,7.777,34.097c8.116,34.554,8.958,36.047,9.319,36.684
					c3.522,6.238,84.361,116.02,87.801,120.688l2.03,2.755L1401.896,988.69z"/>
				<path style="fill:#F47458;" d="M1262.442,743.725c0,0,6.086-15.563,16.919-15.591c0,0-6.053-2.185-11.243,1.926
					C1262.927,734.169,1262.442,743.725,1262.442,743.725z"/>
			</g>
			<g>
				<path style="fill:#F7A491;" d="M1420.011,713.656l9.651,61.039c0,0-36.775,29.531-58.214,23.303
					c-17.988-5.229-5.653-28.744-5.653-28.744s9.584-32.586,6.643-49.666C1369.498,702.509,1420.011,713.656,1420.011,713.656z"/>
				<path style="fill:#FE875E;" d="M1413.081,732.11c-9.218,4.353-27.441,10.292-41.624,11.731
					c1.358-8.542,2.131-17.577,0.98-24.253c-1.356-7.883,8.674-9.748,19.867-9.476c14.648,1.254,27.706,3.543,27.706,3.543
					l1.854,11.73C1419.081,728.325,1416.152,730.661,1413.081,732.11z"/>
				<path style="fill:#F7A491;" d="M1466.422,643.248c1.519,0.007-14.536,68.193-39.383,79.923
					c-24.847,11.731-61.901,5.618-68.854-12.748c-7.69-20.314,20.363-89.88,55.308-98.717
					C1448.438,602.868,1466.422,643.248,1466.422,643.248z"/>
				<path style="fill:#13375B;" d="M1437.67,580.596c19.847,11.448,28.955,28.424,32.021,35.377
					c9.315,4.42,20.585,13.982,25.995,39.744c6.653,31.674-16.997,56.091-42.073,63.436c-25.075,7.344-28.948,23.938-28.948,23.938
					l-2.844-17.856c0,0,5.578-15.549,13.966-23.329c8.388-7.781-3.975-19.122-5.061-28.371c-0.836-7.123,4.407-20.952,3.271-32.639
					c0,0-13.933-21.116-27.668-26.334C1382.916,605.667,1412.207,565.908,1437.67,580.596z"/>
				<path style="fill:#F7A491;" d="M1427.108,685.404c-3.247,7.876-1.92,15.695,2.966,17.465c4.885,1.77,11.477-3.18,14.725-11.056
					c3.248-7.876,1.921-15.694-2.964-17.464C1436.949,672.58,1430.356,677.53,1427.108,685.404z"/>
			</g>
			<path style="fill:#ED9A8C;" d="M1334.559,990.378l-144.623-23.577c0,0,16.455-41.426,22.334-41.426
				c5.88,0,109.354,45.172,109.354,45.172l8.231,16.526L1334.559,990.378z"/>
			<path style="fill:#13375B;" d="M1408.636,1089.537c0,0,14.428,69.746,8.55,122.632c-5.88,52.884-6.344,240.747-6.344,240.747
				l22.436,300.582l-53.233,1.161c0,0-63.124-300.438-61.947-292.725c1.176,7.713-21.166-211.537-21.166-211.537l75.255-167.47
				L1408.636,1089.537z"/>
			<path style="fill:#325170;" d="M1394.525,1086.232c0,0,9.407,62.8-2.351,90.344c-11.759,27.545-100.854,297.803-102.03,319.838
				c-1.175,22.035-30.805,265.592-30.805,265.592l-61.899-1.74l-13.392-270.787l28.04-340.336l27.226-86.047L1394.525,1086.232z"/>
			<path style="fill:#F7A491;" d="M1429.662,774.695c0,0-15.264,10.017-29.5,8.855c-14.237-1.159-34.367-14.296-34.367-14.296
				l2.797-9.482c0,0,36.831-5.366,37.759-4.785C1407.279,755.566,1429.662,774.695,1429.662,774.695z"/>
			<path style="fill:#ED9A8C;" d="M1266.975,923.33c0,0-54.705,51.624-79.398,42.81c-24.692-8.813-34.91-38.942,25.34-83.022
				C1266.837,843.667,1266.975,923.33,1266.975,923.33z"/>
			<path style="fill:#F7CC7F;" d="M1229.907,987.073c8.127-44.211,67.023-181.791,71.728-207.131
				c2.286-12.324,34.055-12.597,64.315-10.988c31.962,1.699,63.712,5.741,63.712,5.741s28.296,4.648,40.745,16.313
				c12.449,11.665,15.756,43.925-2.141,105.166c-14.127,48.342-31.638,74.886-40.306,110.1c-1.756,11.811-3.26,23.463-5.252,37.077
				c-3.186,52.651,0.038,122.21,0.038,122.21s-154.036,31.95-211.653-16.528C1211.094,1149.032,1221.581,1032.37,1229.907,987.073z"
				/>
			<path style="fill:#E3B25D;" d="M1190.631,892.011c0,0,60.442,49.89,63.97,49.89c2.271,0,86.251-61.777,105.636-112.53
				c10.717-28.058-11.761-59.449-37.437-59.345c-17.796,0.072-25.709,4.657-60.983,34.405
				C1226.54,834.179,1190.631,892.011,1190.631,892.011z"/>
		</g>
		<path style="fill:#FFFFFF;" d="M1389.351,696.829l-25.536-7.359c0,0-2.207,9.868,8.929,13.429
			C1386.322,707.241,1389.351,696.829,1389.351,696.829z"/>
	</g>
	<g>
		<path style="fill:#F47458;" d="M1802.914,568.394c0.459-1.983,3.158-2.833,4.756-1.713c2.57,1.801,5.17,3.56,7.76,5.333
			c5.718,3.917,5.822,4.248,6.517,3.999c1.658-0.596,1.107-3.692,0.799-4.813c-0.685-2.485-2.002-4.815-2.173-7.425
			c-0.331-5.091,3.745-8.538,8.491-6.002c4.342,2.321,8.585,4.909,12.791,7.515c-0.774-5.482-1.706-10.947-2.4-16.435
			c-0.247-1.947,1.545-3.169,3.274-2.288c3.847,1.958,15.238,7.756,18.994,9.669c0.971,0.493,5.225,3.334,6.123,2.492
			c0.808-0.754,0.006-4.532-0.064-5.391c-0.396-4.751-0.47-6.434-1.401-21.92c-0.112-1.846,2.479-3.229,3.932-2.048
			c14.306,11.627,15.782,9.833,17.645,13.784c0.417,0.885-0.213,1.664-1.104,1.747c-2.271,0.208-2.827,0.097-9.716-4.371
			c-1.783-1.156-3.534-2.354-5.253-3.597c1.488,18.784,2.313,23.481-2.011,25.756c-3.001,1.578-3.737,0.685-25.268-10.345
			c1.108,5.705,1.866,11.446,2.737,17.211c0.331,2.188-1.802,3.654-3.733,2.609c-15.511-8.395-15.572-9.247-17.141-9.617
			c-0.042-0.01-0.205-0.999-0.164,0.466c0.069,2.49,3.38,7.259,2.542,11.964c-0.736,4.14-4.378,7.909-8.85,6.696
			c-2.598-0.704-3.469-1.742-11.961-7.221c-1.264,4.832-3.097,9.494-5.624,14.236c-1.096,2.056-2.08,3.265-4.085,4.471
			c-1.639,0.987-4.098-0.506-3.87-2.443C1795.104,585.213,1799.514,583.07,1802.914,568.394z"/>
		<path style="fill:#66CCB2;" d="M1728.293,513.001c5.212-0.121,10.139-0.6,15.446-1.658c1-0.199,2.903-0.348,3.359-1.477
			c1.099-2.717-3.735-5.663-7.4-14.743c-1.591-3.94-5.226-11.945-0.047-14.689c2.651-1.406,6.303-1.421,9.22-1.913
			c2.214-0.374,4.412-0.835,6.618-1.25c-6.924-14.577-7.668-13.546-6.752-17.279c0.238-0.97,1.53-1.677,2.47-1.286
			c3.479,1.449,2.514,1.201,11.429,19.49c0.813,1.67-0.032,4.039-2.024,4.372c-2.996,0.503-16.695,2.054-18.347,2.514
			c0.136,0.138,0.122,0.895,0.155,1.053c1.313,6.357,4.539,11.336,7.915,16.728c2.769,4.419,3.907,10.871-1.905,13.407
			c-3.153,1.376-10.004,2.213-15.32,2.625c4.567,8.813,9.199,17.598,13.708,26.437c0.882,1.73-0.021,4.589-2.231,4.818
			c-6.135,0.633-12.232,1.474-18.33,2.362c2.733,5.173,6.264,9.896,10.449,14.014c3.083,3.034-1.002,8.273-8.256,0.089
			c-4.207-4.449-7.594-9.551-10.158-15.205c-0.85-1.871-0.004-4.437,2.235-4.831c6.008-1.057,12.075-1.84,18.146-2.504
			c-4.439-8.834-8.792-17.721-13.236-26.554C1724.347,515.354,1725.98,513.054,1728.293,513.001z"/>
		<path style="fill:#07345A;" d="M1577.912,488.263c-1.758,0.284-3.057-0.651-3.627-2.283c-2.787-7.98-4.852-16.006-4.803-24.54
			c0.026-4.44,6.563-4.047,6.795,0.246c0.361,6.731,1.09,13.616,3.004,20.13c4.83-1.046,9.531-2.561,14.037-4.635
			c1.711-0.787,4.306-0.023,4.593,2.125c0.712,5.35,2.812,25.697,2.627,25.913c0.035-0.024,0.167-0.083,0.528-0.082
			c2.167,0.01,9.043-2.866,12.331-3.296c3.688-0.483,5.816,4.232,6.585,7.187c1.556,5.992-1.669,13.536,1.609,19.05
			c3.152,5.304,10.896-2.722,18.502,0.629c5.86,2.583,5.254,8.979,4.985,18.941c-0.065,2.446-0.156,4.833-2.245,6.44
			c-0.515,0.397-1.336,0.599-1.908,0.154c-3.107-2.415-2.479-6.111-2.47-15.175c0.002-1.155,0.348-3.166-0.624-4.015
			c-3.24-2.829-9.889,3.392-16.793,0.601c-5.376-2.176-7.262-8.145-7.485-13.466c-0.175-4.168,1.342-9.63-0.77-13.508
			c-3.437,0.861-6.89,1.825-10.363,2.413c-3.795,0.642-6.752-0.851-7.691-4.685c-1.042-4.239-1.183-8.82-1.683-13.149
			c-0.336-2.914-0.683-5.826-0.993-8.741C1587.467,486.202,1582.766,487.478,1577.912,488.263z"/>
		<path style="fill:#3C8F7C;" d="M1869.31,649.26c18.063,15.699,6.208,27.331-0.895,23.143c-3.04-1.794-3.942-5.763-1.276-8.301
			c1.218-1.161,3.728-0.191,3.484,1.621c-0.201,1.501,1.47,1.558,1.835-0.06c0.492-2.18-1.419-4.399-2.646-5.993
			c-2.859-3.722-6.52-8.587-11.755-8.401c-7.813,0.279-14.564,9.466-8.14,20.241c9.266,15.543,36.287,10.062,37.782-8.376
			c0.813-10.032-5.017-19.656-13.901-24.19c-1.737-0.886-0.285-3.254,1.364-2.899c12.5,2.691,19.516,16.9,17.49,28.942
			c-2.077,12.353-13.327,20.269-25.457,20.572c-12.721,0.318-24.86-8.544-25.752-21.759
			C1840.467,649.306,1856.682,638.284,1869.31,649.26z"/>
		<path style="fill:#F7CC7F;" d="M1540.805,552.695c2.586,2.623,4.916,8.554,1.211,11.257c-1.721,1.256-4.132,1.136-5.224-0.935
			c-1.067-2.026-0.26-4.225-2.522-5.541c-1.94-1.128-4.23,0.148-5.529,1.708c-3.966,4.756-1.104,12.94,2.278,17.219
			c5.369,6.797,16.296,6.257,20.036-2.72c1.171-2.808,1.019-5.811,1.195-8.786c0.098-1.644,2.464-2.836,3.589-1.31
			c4.332,5.868,1.534,14.511-3.263,19.259c-5.035,4.982-13.208,6.229-19.667,3.53c-7.214-3.015-11.88-10.803-13.081-18.329
			C1517.337,552.41,1532.425,544.197,1540.805,552.695z"/>
	</g>
	<g>
		<path style="fill:#F7A491;" d="M1710.242,1261.149c0,0,3.232-6.37,4.137-8.567c1.061-2.577,3.62-10.541,3.62-10.541
			s7.577-28.149,5.38-28.533c-2.198-0.387-6.283,3.729-7.38,5.303c-1.098,1.574-2.539,3.316-3.637,4.892
			c-1.098,1.573-3.217,2.079-5.343,0.886c-2.127-1.193,0.836-8.401,2.371-10.69c4.791-7.142,21.578-23.705,23.276-25.534
			c2.009-2.16,5.853-53.373,8.611-70.813h-0.008c3.635-28.68,5.886-58.343,6.257-61.382l-21.696-122.13l43.083-24.89
			c0,0,26.041,135.221,26.549,142.123c0.239,3.284-13.506,69.095-13.534,69.093c-8.879,31.979-16.785,60.139-18.145,65.592
			c0,0,0.464,17.388,1.435,28.445c0.969,11.058-2.722,21.588-2.942,24.733c-0.032,0.463-0.183,11.333-5.396,23.661
			c-4.496,10.627-5.295-1.539-5.295-1.539s4.651-21.205,2.855-21.305c-1.384-0.074-3.216,11.662-8.063,23.473
			c-1.244,3.037-2.486,6.028-3.649,8.77c-3.053,7.189-8.516,7.344-6.568-0.697c0.688-2.84,1.947-7.527,3.338-10.737
			c1.502-3.468,1.717-7.144,2.516-10.253c1.586-6.175,2.822-10.656,2.522-10.585c-0.388,0.091-0.973-1.365-2.397,1.816
			c-1.717,3.824-3.489,12.767-6.467,18.194c-1.686,3.078-4.805,9.724-4.805,9.724s-6.28,10.22-6.971,10.012
			c-3.742-1.127-1.424-9.72,1.44-13.601c0.494-3.401,3.98-10.301,3.98-10.301s3.79-15.543,1.518-16.138
			c-1.866-0.488-18.394,34.91-22.064,33.522C1705.772,1272.02,1710.242,1261.149,1710.242,1261.149z"/>
	</g>
	<path style="fill:#D1593C;" d="M1722.136,1003.692c0,0,22.193,0.147,34.383-1.979c16.243-2.833,27.156-5.894,27.156-5.894
		s-3.847-72.179-16.89-117.875c-5.392-18.886-12.549-28.794-24.332-32.922c-0.073-0.025-28.661,11.83-34.943,51.282
		C1706.034,905.568,1722.136,1003.692,1722.136,1003.692z"/>
	<path style="fill:#F7A491;" d="M1662.48,1233.824l-28.349,252.518c0,0,13.854,53.4,12.186,68.571
		c-1.671,15.171-30.814,214.183-30.814,214.183l1.228,11.165l0.034,32.965h-108.177c0,0,22.959-10.251,55.076-30.51
		c2.376-1.499,7.849-6.275,9.18-15.799c8.576-61.341-8.391-265.944-8.391-265.944l-13.365-266.331L1662.48,1233.824z"/>
	<path style="fill:#F7A491;" d="M1749.417,1286.943c6.107,1.54,15.512,218.66,20.57,228.283
		c32.077,61.009,39.699,246.487,39.699,246.487l9.569,26.995l9.719,32.074c0,0-32.017,8.224-48.813-1.021l1.864-31.93l1.703-29.199
		l-80.924-231.083l-44.28-235.705L1749.417,1286.943z"/>
	<path style="fill:#F47458;" d="M1588.472,866.354c13.054-17.783,66.913-69.296,72.896-69.19
		c17.443,0.304,74.696,0.326,85.889,5.992l-0.539,98.065c-1.824,8.23-41.349,136.447-39.055,164.515l-0.271,0.262
		c-33.129,31.883-85.371,29.377-115.668-5.546l0,0c0,0,0.131-38.893-4.534-74.371C1579.879,930.5,1556.043,910.528,1588.472,866.354
		z"/>
	<path style="fill:#F47458;" d="M1540.984,1398.083l-3.848-149.808c-0.665-42.339,7.99-84.299,25.344-122.854l29.242-64.97
		c11.83,3.751,22.977,6.945,35.411,8.335c27.042,3.025,53.639,0.022,80.528-3.051c0.083,1.015,0.205,1.9,0.371,2.646
		c4.879,22.062,32.061,71.248,43.511,138.476c12.998,76.31,16.392,182.11,14.766,191.065
		C1691.034,1415.484,1613.882,1416.063,1540.984,1398.083z"/>
	<path style="fill:#F7A491;" d="M1678.919,741.958c0,0-1.509,36.181,1.752,49.898c3.262,13.717,7.608,14.753-20.384,18.927
		c-10.995,1.639-21.572,3.899-21.572,3.899s2.847-19.956,3.281-28.46c0.715-14.003-3.236-57.249-3.236-57.249L1678.919,741.958z"/>
	<path style="fill:#F47458;" d="M1657.603,759.964c-5.761,3.102-11.138,4.934-16.1,5.694c-0.952-17.083-2.742-36.684-2.742-36.684
		l38.313,12.388C1672.625,748.76,1666.306,755.274,1657.603,759.964z"/>
	<path style="fill:#13375B;" d="M1782.033,1787.703c14.773,6.559,30.678,2.602,37.075,0.511l2.126,5.703l8.146,27.071
		c0,0-32.423,8.017-49.219-1.226L1782.033,1787.703z"/>
	<path style="fill:#13375B;" d="M1617.881,1821.412h-112.459c-4.158-0.375-5.172-3.764-3.73-5.851
		c2.969-4.3,16.088-7.454,30.835-14.303c25.866,2.716,80.144-15.081,84.226-21.063
		C1619.108,1792.174,1620.192,1820.9,1617.881,1821.412z"/>
	<path style="fill:#13375B;" d="M1663.479,1198.576v47.144c0,24.509-20.524,44.38-45.839,44.38h-47.156V1180.2h74.015
		c5.067,0,9.665,1.922,13.067,5.057C1661.21,1188.592,1663.479,1193.325,1663.479,1198.576z"/>
	<g>
		<path style="fill:#13375B;" d="M1663.267,1200.326l-14.003-0.282l7.891-368.708c-14.674,2.624-26.965,13.158-31.133,27.398
			l-97.43,332.951l-13.477-3.697l97.431-332.951c6.53-22.312,27.818-37.896,51.772-37.896h7.148L1663.267,1200.326z"/>
	</g>
	<path style="fill:#F8A492;" d="M1660.499,900.799l-59.343-10.36l-36.824,82.198c-23.379-22.509-107.953-84.965-108.395-85.427
		l-18.766,21.294c0,0,99.526,128.792,144.888,122.836C1620.741,1026.261,1661.21,900.427,1660.499,900.799z"/>
	<path style="fill:#D1593C;" d="M1685.127,845.106c8.1,33.233-35.1,107.326-35.1,107.326s-61.539-28.937-72.355-41.406
		c0,0,41.807-71.899,44.547-76.271c12.405-19.791,29.248-19.814,40.229-18.524C1671.266,817.268,1685.127,845.106,1685.127,845.106z
		"/>
	<path style="fill:#184655;" d="M1759.978,961.798c71.359-21.347,52.251-84.031,51.853-81.651c0.207-1.935,6.93-9.829,10.256-16.577
		c13.857-28.104-4.423-61.957-25.363-73.663c13.887-35.742,0.096-70.031-26.051-84.319c-13.198-7.212-24.301-17.468-33.223-29.33
		c-19.799-26.325-55.806-52.827-99.096-44.175c-42.836,10.922,14.513,35.65,8.835,76.716c-2.878,20.818,5.394,17.832,18.298,34.567
		c-18.579,32.537-7.835,87.152,20.644,111.924C1672.169,913.922,1687.161,983.581,1759.978,961.798z"/>
	<path style="fill:#F7A491;" d="M1644.089,707.271c0,9.026,3.385,16.345,7.56,16.345s7.56-7.318,7.56-16.345
		c0-9.027-3.385-16.344-7.56-16.344S1644.089,698.243,1644.089,707.271z"/>
	<path style="fill:#355389;" d="M1657.566,1185.257h-0.313c-9.728,0-17.614,7.635-17.614,17.054v34.679
		c0,29.332-24.561,53.11-54.857,53.11h-28.71c-30.297,0-54.856-23.778-54.856-53.11v-34.507c0-12.307,10.303-22.282,23.016-22.282
		h120.269C1649.566,1180.2,1654.164,1182.122,1657.566,1185.257z"/>
	<path style="fill:#184655;" d="M1706.958,675.222c8.432,34.646-37.196,59.801-73.322,60.72
		c-23.48,0.599-34.272-1.805-38.068-26.461c-6.157-39.994,10.378-64.376,33.545-74.466
		C1659.006,621.995,1700.002,646.642,1706.958,675.222z"/>
	<path style="fill:#F7A491;" d="M1653.898,651.915c0,0,15.883,5.327,24.349,21.309c8.467,15.981,4.257,67.159-30.966,84.036
		c-35.225,16.878-51.415-21.447-48.859-49.729C1600.977,679.25,1611.178,642.243,1653.898,651.915z"/>
	<path style="fill:#184655;" d="M1690.766,711.953c5.211-26.449,3.171-46.494-15.685-56.172
		c-18.855-9.679-34.972-19.274-51.847-1.88l-3.814,2.143c0,0,31.84,8.77,33.617,25.622c1.776,16.853,18.705,36.885,16.099,45.161
		c-2.606,8.278-5.613,24.784-5.613,24.784l6.973-5.714C1670.495,745.897,1685.555,738.401,1690.766,711.953z"/>
	<path style="fill:#F7A491;" d="M1657.945,701.83c-2.632,7.303-0.643,14.636,4.439,16.378c5.083,1.74,11.336-2.768,13.968-10.074
		c2.63-7.303,0.642-14.636-4.441-16.376C1666.829,690.016,1660.576,694.526,1657.945,701.83z"/>
	<path style="fill:#F7A491;" d="M1438.168,909.854l20.357-17.957c-1.632-2.505-2.6-4.197-2.588-4.688
		c0.059-2.204,1.5-22.988,0.501-30.519c-0.32-2.414-2.569-8.92-4.676-8.468c-2.106,0.452-3.216,2.027-3.021,3.71
		c0.192,1.686,0.256,3.68,0.448,5.365c0.193,1.685-0.108,6.799-1.79,7.827c-1.682,1.028-13.111-22.047-13.111-22.047
		s-2.958-6.772-3.761-9.1c-0.686-1.984-2.266-8.093-2.266-8.093s-3.391-9.815-6.039-8.813c-3.243,1.227,6.494,34.336,4.971,35.104
		c-1.854,0.934-8.426-11.578-8.426-11.578s-1.721-6.609-3.381-9.151c-0.37-4.244-3.854-11.293-6.994-9.853
		c-0.578,0.266,1.232,10.706,1.232,10.706s1.818,6.227,2.498,9.251c1.2,5.335,5.252,12.295,6.351,15.832
		c0.913,2.941-0.323,2.317-0.528,2.606c-0.157,0.222-1.956-3.47-4.515-8.487c-1.288-2.526-3.295-5.089-4.324-8.263
		c-0.956-2.94-2.858-6.781-4.063-9.065c-3.408-6.467-6.937-3.172-4.758,3.377c0.83,2.494,1.756,5.202,2.705,7.942
		c3.69,10.656,9.336,19.504,8.375,20.262c-1.247,0.984-10.559-15.783-10.559-15.783s-7.638-7.593-4.407,2.074
		c3.75,11.216,10.003,18.503,10.253,18.829c1.691,2.213,5.4,11.348,12.504,18.106
		C1426.261,895.74,1437.533,908.573,1438.168,909.854z"/>
	<path style="fill:#FFFFFF;" d="M1636.82,731.711l-26.555,1.05c0,0,1.011,10.061,12.702,9.936
		C1637.224,742.547,1636.82,731.711,1636.82,731.711z"/>
</g>
</svg>
